PathFileType	4	(X/Y/Z)	12_1_25_p0_0-172_filt_butterworth.trc
DataRate	CameraRate	NumFrames	NumMarkers	Units	OrigDataRate	OrigDataStartFrame	OrigNumFrames
56.0	56.0	5	27	m	56.0	150	172
Frame#	Time	RHip			RKnee			RAnkle			RBigToe			RSmallToe			RHeel			LHip			LKnee			LAnkle			LBigToe			LSmallToe			LHeel			Neck			Head			Nose			RShoulder			RElbow			RWrist			RThumb			RIndex			RPinky			LShoulder			LElbow			LWrist			LThumb			LIndex			LPinky			
		X1	Y1	Z1	X2	Y2	Z2	X3	Y3	Z3	X4	Y4	Z4	X5	Y5	Z5	X6	Y6	Z6	X7	Y7	Z7	X8	Y8	Z8	X9	Y9	Z9	X10	Y10	Z10	X11	Y11	Z11	X12	Y12	Z12	X13	Y13	Z13	X14	Y14	Z14	X15	Y15	Z15	X16	Y16	Z16	X17	Y17	Z17	X18	Y18	Z18	X19	Y19	Z19	X20	Y20	Z20	X21	Y21	Z21	X22	Y22	Z22	X23	Y23	Z23	X24	Y24	Z24	X25	Y25	Z25	X26	Y26	Z26	X27	Y27	Z27	
150	2.6785714285714284	0.42573774829467503	0.9828769501491255	0.42352653697135645	0.4597689380975638	0.5410164967642405	0.49055435921390506	0.4920995846129316	0.12290978516128434	0.595706615278301	0.4734017367163995	0.1409639283984072	0.3602182744112656	0.5327598985099227	0.15034069117874221	0.38787806756848187	0.47638579130774045	0.06217771873382187	0.6340090303358792	0.2301262333041337	0.9669826676626788	0.41156529780415707	0.2668245307224373	0.5139589543606876	0.48909260978656705	0.3078549909710375	0.13632796495263652	0.5475173173795098	0.32843871112698036	0.11981280950127898	0.37254262362080665	0.2537390794485671	0.12919554792436838	0.3974749741578714	0.32008903532890665	0.08335087382044336	0.5951415092813939	0.2980971272603382	1.5402030748337754	0.37672044925212383	0.2869710688814365	1.7839865102087367	0.36836396315067677	0.29280741674911914	1.671141844581171	0.26455465445424126	0.45510447199358955	1.4462526473196373	0.4156799731506837	0.4973383042218461	1.1999079667813757	0.40382975349307254	0.4386720348281886	0.9903574237621108	0.29276949717178113	0.3383843231635032	0.9266965530888783	0.22168799538455036	0.3432288952777273	0.8913403454250003	0.2410546303715852	0.37756859894613426	0.8779534841243956	0.27295665458474433	0.1471124874366449	1.4292353155725264	0.4159589042581512	0.13463928165953548	1.1914460860929732	0.3719810953280671	0.19733082070957242	0.9889976464468883	0.26132370595115295	0.2735394288064488	0.9372507963792338	0.22256472118693904	0.27859735141083686	0.9134771318785563	0.2198615565956965	0.26613749933195496	0.8927330739370253	0.25010126702448277	
151	2.696428571428572	0.42664734520114317	0.9859554572827764	0.4189755443476013	0.45958832530504784	0.5420373424672267	0.4895710466608208	0.49209704527496795	0.12163298572504891	0.5957597620793993	0.47426364625734463	0.14152704103130637	0.3578872870823542	0.532943349856149	0.14983549212298122	0.3878597563739965	0.4765423918639617	0.0615496407371893	0.6341722849073576	0.23132806168885742	0.9698116786717599	0.4073129582233494	0.26663798036496583	0.5146010622337527	0.4887409171623436	0.30788564228399	0.13568867816781605	0.5474282121745427	0.3284082836398299	0.11977003546150047	0.3725130751348469	0.2537484932661962	0.12919740979145827	0.3974236343703423	0.3197948292323169	0.08187527515785098	0.5956981082008577	0.29881826345174745	1.5404912559072574	0.37447584842828063	0.28714260710312745	1.783353118759603	0.3685744766974173	0.2928239171407007	1.6713539616247313	0.26453958748004014	0.4551166058047431	1.4464403989043382	0.4156324122460032	0.4988667864068336	1.2018436717161172	0.4006648686035442	0.44666737890951785	0.985572753833976	0.2983626301450758	0.3538476830480335	0.9205817432944944	0.21830435228032977	0.3632235363471247	0.8849954269763556	0.2393655596645038	0.398438409851948	0.8731463464741934	0.26819234712276296	0.14647437640361885	1.429102999860414	0.41542409488286075	0.1330645750684599	1.189533297377532	0.37209940665642965	0.19078984972675478	0.9843084271129281	0.27007787276990053	0.2606784861211936	0.9283071709741717	0.23109316773962213	0.2622319858344857	0.9083473025907013	0.2226159687266908	0.24826791133494513	0.8900444391406762	0.24872436460647235	
152	2.7142857142857144	0.42761304228382746	0.9890720735173271	0.41403940262544703	0.45944841864018443	0.5431799732904258	0.4884514239552488	0.49202087549686424	0.12052368362710655	0.5957690851926588	0.47517089203217167	0.14193778485906425	0.35601718210930194	0.5328682714642413	0.15044332760087847	0.3866661367595923	0.4766817604090543	0.060955643612349106	0.6343599970069375	0.23251993536227114	0.9725684413293246	0.4031419629491293	0.26649345076692527	0.5153775860591642	0.4884053708692422	0.30792367307736573	0.13510709002759064	0.5473299933140133	0.3283162101935808	0.11943161540264521	0.37252732642520425	0.2537593607713441	0.129204750463687	0.39736266267006914	0.31952727853499313	0.08049123969351325	0.5962149988187948	0.29918518579886744	1.5404953151727245	0.3723428091007044	0.2875330638068388	1.782926229099939	0.3691572314750241	0.29314993406072964	1.671381722596145	0.26366585406738685	0.4551805333856367	1.4463519621069465	0.4155237985055028	0.5010908306913746	1.2036319758232676	0.3948840346948147	0.457768999456459	0.980891707411514	0.30224276637362757	0.37357432562246606	0.9113017922374657	0.22190830849849286	0.38728965875816745	0.8782719820038333	0.24271569590224623	0.42206775808145935	0.869325233222875	0.2661430860580548	0.14550727939775526	1.428725788840904	0.4140717241527577	0.1311750147459032	1.1866504118017798	0.3716025844941818	0.18179673506788746	0.9788634290111432	0.2815841178437676	0.2446925033154248	0.9175659578069022	0.2428881355077001	0.24160932615015712	0.9002979601731559	0.22997887134012057	0.22546325515031423	0.8857479424574203	0.2514029945684734	
153	2.732142857142857	0.42857944264143066	0.992079455974506	0.4089186996160169	0.4593435126844733	0.5444121331172983	0.48722766334958867	0.49187536681691285	0.11959123516325892	0.5957277769433225	0.4761123430297568	0.14204601215480966	0.3548064901678193	0.5325828455245641	0.15178009151452057	0.3846106961065329	0.4768000954201875	0.06039959047859853	0.6345739217249041	0.23373608700388804	0.9751190634112178	0.3992836330456911	0.26638053738107265	0.5161921201313526	0.4881067553683185	0.3079665927239526	0.13459430305005285	0.5472256668866468	0.3281730615532895	0.11867500788988836	0.37267350258864745	0.2537710543015585	0.12921428149177144	0.3973013921418361	0.31941870800187655	0.07954188246760042	0.5963553058421698	0.2991152599253448	1.5401570280285952	0.3703291882578865	0.28810956544723276	1.7827985001639648	0.36987389504746976	0.2938444871160939	1.671172719906004	0.2617505184460629	0.4552782395055943	1.4459285084227025	0.4153468565783264	0.5041049039993433	1.2048026453559646	0.38770525604266265	0.4719765769473927	0.976346381256889	0.30564874741674974	0.3965609338235895	0.8995375788375075	0.23284343417476805	0.4140541836728786	0.8715918670714253	0.25091686959562975	0.44710166786684746	0.8659873660272798	0.2689389209876355	0.1442929098383548	1.428137288060057	0.4119664992321239	0.12910463241399758	1.1832659679305895	0.3707903457503422	0.17050350039799744	0.9727593677878478	0.29516104745855676	0.2265157125237111	0.9051435275564131	0.2574906681529853	0.2183324524376275	0.8891578589373034	0.24223189107052806	0.19897682702132935	0.8788665901132305	0.2609078576107754	
154	2.75	0.4294648822762837	0.9948341587518402	0.4038084896997183	0.4592541137457184	0.5457059443550276	0.4859166514175534	0.49167620188605543	0.11874086161918818	0.5956301487111109	0.4769409358102673	0.14191037841453968	0.3541418023374031	0.5322394080583128	0.15297051921178229	0.3826689775427626	0.47689387368915537	0.05988267557595306	0.634814964653343	0.23500641776417758	0.977324736783056	0.3958889801003388	0.2662865759984663	0.5169677923276632	0.487855300301374	0.3080151934942622	0.1341453457103078	0.5471108860179247	0.32801439309154046	0.11752233995172756	0.3730801358434163	0.2537812877594782	0.1292078220666668	0.3972500856236103	0.3195218179395123	0.07915130634986617	0.5959129082877662	0.29865842644595997	1.5395289465626552	0.36849914189884025	0.2888398904195181	1.7829198082492153	0.37024017930811737	0.294783375093303	1.6707595424496642	0.259142607177108	0.4553474797487099	1.445247110551444	0.41514810195404983	0.5078516243426061	1.2052013730775524	0.3804512770391194	0.48865501636797243	0.9720853876821162	0.3099499198287385	0.4215950382168292	0.8866363598954106	0.249801531875519	0.4414622625042884	0.8653446502979554	0.2627587990261887	0.4719085272621394	0.86200681389377	0.27962220819809686	0.14297224247848184	1.4274506877484907	0.4093839947199782	0.126977288053345	1.179655684710888	0.3703149084073311	0.15731599441870991	0.9660797269322228	0.31054935312378473	0.20790959907821263	0.8921557826326537	0.2734284600913115	0.19443688074460463	0.8752499914770479	0.2592649207455013	0.17141304995204482	0.8693690801686141	0.27786776936555224	
